<svg width="311" height="210" viewBox="0 0 311 210" fill="none" xmlns="http://www.w3.org/2000/svg">
<path d="M101.543 166L93.623 153.28V166H90.527V149.2H94.271L101.687 161.08V149.2H104.759V166H101.543ZM112.858 166.384C108.97 166.384 106.498 163.816 106.498 159.928C106.498 156.04 108.97 153.472 112.858 153.472C116.698 153.472 119.17 156.04 119.17 159.928C119.17 163.816 116.698 166.384 112.858 166.384ZM112.858 163.768C114.778 163.768 116.05 162.256 116.05 159.928C116.05 157.6 114.778 156.064 112.858 156.064C110.914 156.064 109.642 157.6 109.642 159.928C109.642 162.256 110.914 163.768 112.858 163.768ZM126.902 166V149.2H130.142V162.184C130.142 162.808 130.478 163.144 131.126 163.144H138.566V166H126.902ZM139.84 166V153.856H142.912V166H139.84ZM141.376 152.08C140.296 152.08 139.504 151.336 139.504 150.328C139.504 149.344 140.296 148.552 141.376 148.552C142.456 148.552 143.248 149.344 143.248 150.328C143.248 151.336 142.456 152.08 141.376 152.08ZM151.714 158.92C154.162 159.352 155.458 160.552 155.458 162.52C155.458 164.92 153.442 166.36 150.226 166.36C146.722 166.36 144.586 164.68 144.514 161.92H147.37C147.538 163.216 148.45 163.984 150.154 163.984C151.546 163.984 152.386 163.48 152.386 162.52C152.386 161.776 151.882 161.368 150.658 161.152L148.786 160.84C146.146 160.36 144.802 159.184 144.802 157.288C144.802 155.032 146.65 153.496 149.746 153.496C152.842 153.496 154.906 155.032 155.074 157.672H152.146C152.026 156.52 151.186 155.8 149.722 155.8C148.378 155.8 147.754 156.376 147.754 157.168C147.754 157.864 148.258 158.272 149.674 158.536L151.714 158.92ZM162.664 166C159.784 166 158.2 164.416 158.2 161.752V156.448H155.992V153.856H157.408C158.056 153.856 158.392 153.52 158.392 152.896V150.16H161.2V153.856H163.744V156.448H161.272V162.688C161.272 163.192 161.512 163.408 162.016 163.408H164.056V166H162.664ZM165.504 166V153.856H168.576V166H165.504ZM167.04 152.08C165.96 152.08 165.168 151.336 165.168 150.328C165.168 149.344 165.96 148.552 167.04 148.552C168.12 148.552 168.912 149.344 168.912 150.328C168.912 151.336 168.12 152.08 167.04 152.08ZM178.985 158.872C178.985 157 178.241 156.136 176.753 156.136C175.049 156.136 173.849 157.312 173.849 159.952V166H170.777V153.856H173.561V155.632C174.329 154.216 175.673 153.472 177.497 153.472C180.353 153.472 182.057 155.272 182.057 158.296V166H178.985V158.872ZM189.587 170.8C185.915 170.8 184.019 168.712 183.755 166.12H186.731C186.971 167.488 187.907 168.376 189.587 168.376C191.459 168.376 192.611 167.272 192.611 165.376V163.768C191.723 164.872 190.403 165.472 188.795 165.472C185.627 165.472 183.467 163.168 183.467 159.496C183.467 155.8 185.627 153.496 188.795 153.496C190.571 153.496 191.963 154.216 192.851 155.512V153.88H195.467V164.512C195.467 168.352 193.523 170.8 189.587 170.8ZM189.491 163.048C191.387 163.048 192.659 161.608 192.659 159.496C192.659 157.36 191.387 155.944 189.491 155.944C187.595 155.944 186.395 157.36 186.395 159.496C186.395 161.632 187.595 163.048 189.491 163.048ZM204.284 158.92C206.732 159.352 208.028 160.552 208.028 162.52C208.028 164.92 206.012 166.36 202.796 166.36C199.292 166.36 197.156 164.68 197.084 161.92H199.94C200.108 163.216 201.02 163.984 202.724 163.984C204.116 163.984 204.956 163.48 204.956 162.52C204.956 161.776 204.452 161.368 203.228 161.152L201.356 160.84C198.716 160.36 197.372 159.184 197.372 157.288C197.372 155.032 199.22 153.496 202.316 153.496C205.412 153.496 207.476 155.032 207.644 157.672H204.716C204.596 156.52 203.756 155.8 202.292 155.8C200.948 155.8 200.324 156.376 200.324 157.168C200.324 157.864 200.828 158.272 202.244 158.536L204.284 158.92Z" fill="black"/>
<path d="M63.2348 194L57.2028 184.592V194H55.7788V182.8H57.6028L63.3948 191.856V182.8H64.8348V194H63.2348ZM70.1266 194.24C67.7426 194.24 66.1746 192.56 66.1746 189.984C66.1746 187.408 67.7426 185.728 70.1266 185.728C72.5266 185.728 74.0786 187.408 74.0786 189.984C74.0786 192.56 72.5266 194.24 70.1266 194.24ZM70.1266 193.024C71.6626 193.024 72.6546 191.824 72.6546 189.984C72.6546 188.144 71.6626 186.944 70.1266 186.944C68.6066 186.944 67.5986 188.144 67.5986 189.984C67.5986 191.824 68.6066 193.024 70.1266 193.024ZM79.4194 197.2V185.968H80.6674V187.424C81.2274 186.336 82.2194 185.728 83.5314 185.728C85.6914 185.728 87.1314 187.392 87.1314 189.984C87.1314 192.576 85.6914 194.24 83.5314 194.24C82.3154 194.24 81.3714 193.728 80.7954 192.784V197.2H79.4194ZM83.2914 193.04C84.7794 193.04 85.7074 191.824 85.7074 189.984C85.7074 188.144 84.7794 186.944 83.2914 186.944C81.7874 186.944 80.7634 188.144 80.7634 189.984C80.7634 191.824 81.7874 193.04 83.2914 193.04ZM91.9859 194.24C89.6019 194.24 88.0339 192.56 88.0339 189.984C88.0339 187.408 89.6019 185.728 91.9859 185.728C94.3859 185.728 95.9379 187.408 95.9379 189.984C95.9379 192.56 94.3859 194.24 91.9859 194.24ZM91.9859 193.024C93.5219 193.024 94.5139 191.824 94.5139 189.984C94.5139 188.144 93.5219 186.944 91.9859 186.944C90.4659 186.944 89.4579 188.144 89.4579 189.984C89.4579 191.824 90.4659 193.024 91.9859 193.024ZM101.12 189.456C102.688 189.744 103.552 190.512 103.552 191.792C103.552 193.28 102.304 194.24 100.304 194.24C98.1119 194.24 96.7839 193.104 96.7359 191.408H98.0159C98.1439 192.4 98.8479 193.072 100.288 193.072C101.44 193.072 102.16 192.624 102.16 191.76C102.16 191.104 101.728 190.768 100.752 190.592L99.5359 190.384C97.8399 190.096 96.9759 189.376 96.9759 188.144C96.9759 186.768 98.0799 185.728 100.032 185.728C101.936 185.728 103.184 186.736 103.296 188.4H101.968C101.872 187.488 101.216 186.88 99.9999 186.88C98.8799 186.88 98.3519 187.392 98.3519 188.08C98.3519 188.688 98.7519 189.04 99.8719 189.232L101.12 189.456ZM107.887 194C106.255 194 105.471 193.136 105.471 191.712V187.184H104.015V185.968H104.895C105.311 185.968 105.535 185.744 105.535 185.328V183.44H106.815V185.968H108.447V187.184H106.831V192.304C106.831 192.656 106.975 192.784 107.327 192.784H108.687V194H107.887ZM119.393 189.2C119.393 187.664 118.801 186.944 117.585 186.944C116.113 186.944 115.249 187.984 115.249 190.08V194H113.873V182.8H115.249V187.232C115.713 186.24 116.593 185.728 117.809 185.728C119.649 185.728 120.769 186.896 120.769 188.88V194H119.393V189.2ZM124.74 194.24C122.98 194.24 121.956 193.184 121.956 191.76C121.956 190.352 122.932 189.472 124.804 189.344L126.852 189.2C127.236 189.168 127.428 189.008 127.428 188.48C127.428 187.344 126.58 186.912 125.54 186.912C124.356 186.912 123.652 187.472 123.524 188.48H122.18C122.42 186.656 123.636 185.728 125.572 185.728C127.572 185.728 128.836 186.72 128.836 188.976V192.784H129.476V194H128.884C128.084 194 127.62 193.504 127.62 192.592V192.48C127.14 193.6 126.116 194.24 124.74 194.24ZM124.932 193.072C126.388 193.072 127.476 192.08 127.476 190.464V190.192L124.98 190.352C123.812 190.432 123.364 190.896 123.364 191.696C123.364 192.64 123.972 193.072 124.932 193.072ZM132.44 194L129.496 185.968H130.952L133.224 192.4H133.288L135.576 185.968H137.032L134.088 194H132.44ZM141.141 194.24C138.757 194.24 137.253 192.576 137.253 190C137.253 187.44 138.741 185.728 141.109 185.728C143.573 185.728 145.045 187.584 144.709 190.384H138.661C138.741 192.048 139.637 193.056 141.141 193.056C142.405 193.056 143.045 192.32 143.237 191.728H144.613C144.245 193.136 143.077 194.24 141.141 194.24ZM138.693 189.28H143.333C143.381 187.984 142.581 186.896 141.045 186.896C139.749 186.896 138.853 187.808 138.693 189.28ZM154.219 194.24C152.907 194.24 151.915 193.632 151.355 192.544V194H150.107V182.8H151.483V187.184C152.059 186.24 153.003 185.728 154.219 185.728C156.379 185.728 157.819 187.392 157.819 189.984C157.819 192.576 156.379 194.24 154.219 194.24ZM153.979 193.024C155.467 193.024 156.395 191.824 156.395 189.984C156.395 188.144 155.467 186.944 153.979 186.944C152.475 186.944 151.451 188.144 151.451 189.984C151.451 191.824 152.475 193.024 153.979 193.024ZM162.609 194.24C160.225 194.24 158.721 192.576 158.721 190C158.721 187.44 160.209 185.728 162.577 185.728C165.041 185.728 166.513 187.584 166.177 190.384H160.129C160.209 192.048 161.105 193.056 162.609 193.056C163.873 193.056 164.513 192.32 164.705 191.728H166.081C165.713 193.136 164.545 194.24 162.609 194.24ZM160.161 189.28H164.801C164.849 187.984 164.049 186.896 162.513 186.896C161.217 186.896 160.321 187.808 160.161 189.28ZM171.016 194.24C168.632 194.24 167.128 192.576 167.128 190C167.128 187.44 168.616 185.728 170.984 185.728C173.448 185.728 174.92 187.584 174.584 190.384H168.536C168.616 192.048 169.512 193.056 171.016 193.056C172.28 193.056 172.92 192.32 173.112 191.728H174.488C174.12 193.136 172.952 194.24 171.016 194.24ZM168.568 189.28H173.208C173.256 187.984 172.456 186.896 170.92 186.896C169.624 186.896 168.728 187.808 168.568 189.28ZM181.455 189.2C181.455 187.664 180.863 186.944 179.647 186.944C178.175 186.944 177.311 187.984 177.311 190.08V194H175.935V185.968H177.183V187.36C177.679 186.288 178.607 185.728 179.871 185.728C181.711 185.728 182.847 186.896 182.847 188.88V194H181.455V189.2ZM188.466 197.2V185.968H189.714V187.424C190.274 186.336 191.266 185.728 192.578 185.728C194.738 185.728 196.178 187.392 196.178 189.984C196.178 192.576 194.738 194.24 192.578 194.24C191.362 194.24 190.418 193.728 189.842 192.784V197.2H188.466ZM192.338 193.04C193.826 193.04 194.754 191.824 194.754 189.984C194.754 188.144 193.826 186.944 192.338 186.944C190.834 186.944 189.81 188.144 189.81 189.984C189.81 191.824 190.834 193.04 192.338 193.04ZM201.033 194.24C198.649 194.24 197.081 192.56 197.081 189.984C197.081 187.408 198.649 185.728 201.033 185.728C203.433 185.728 204.985 187.408 204.985 189.984C204.985 192.56 203.433 194.24 201.033 194.24ZM201.033 193.024C202.569 193.024 203.561 191.824 203.561 189.984C203.561 188.144 202.569 186.944 201.033 186.944C199.513 186.944 198.505 188.144 198.505 189.984C198.505 191.824 199.513 193.024 201.033 193.024ZM210.167 189.456C211.735 189.744 212.599 190.512 212.599 191.792C212.599 193.28 211.351 194.24 209.351 194.24C207.159 194.24 205.831 193.104 205.783 191.408H207.063C207.191 192.4 207.895 193.072 209.335 193.072C210.487 193.072 211.207 192.624 211.207 191.76C211.207 191.104 210.775 190.768 209.799 190.592L208.583 190.384C206.887 190.096 206.023 189.376 206.023 188.144C206.023 186.768 207.127 185.728 209.079 185.728C210.983 185.728 212.231 186.736 212.343 188.4H211.015C210.919 187.488 210.263 186.88 209.047 186.88C207.927 186.88 207.399 187.392 207.399 188.08C207.399 188.688 207.799 189.04 208.919 189.232L210.167 189.456ZM216.933 194C215.301 194 214.517 193.136 214.517 191.712V187.184H213.061V185.968H213.941C214.357 185.968 214.581 185.744 214.581 185.328V183.44H215.861V185.968H217.493V187.184H215.877V192.304C215.877 192.656 216.021 192.784 216.373 192.784H217.733V194H216.933ZM222.156 194.24C219.772 194.24 218.268 192.576 218.268 190C218.268 187.44 219.756 185.728 222.124 185.728C224.588 185.728 226.06 187.584 225.724 190.384H219.676C219.756 192.048 220.652 193.056 222.156 193.056C223.42 193.056 224.06 192.32 224.252 191.728H225.628C225.26 193.136 224.092 194.24 222.156 194.24ZM219.708 189.28H224.348C224.396 187.984 223.596 186.896 222.06 186.896C220.764 186.896 219.868 187.808 219.708 189.28ZM230.275 194.24C228.115 194.24 226.675 192.576 226.675 189.984C226.675 187.392 228.115 185.728 230.275 185.728C231.507 185.728 232.435 186.256 233.011 187.216V182.8H234.387V194H233.123V192.576C232.563 193.648 231.587 194.24 230.275 194.24ZM230.515 193.024C232.003 193.024 233.027 191.824 233.027 189.984C233.027 188.144 232.003 186.944 230.515 186.944C229.027 186.944 228.099 188.144 228.099 189.984C228.099 191.824 229.027 193.024 230.515 193.024ZM242.425 194.368C242.553 193.984 242.553 193.712 242.425 193.36L239.433 185.968H240.889L243.273 192.112H243.337L245.513 185.968H246.953L242.777 197.2H241.353L242.425 194.368ZM251.063 194.24C248.679 194.24 247.175 192.576 247.175 190C247.175 187.44 248.663 185.728 251.031 185.728C253.495 185.728 254.967 187.584 254.631 190.384H248.583C248.663 192.048 249.559 193.056 251.063 193.056C252.327 193.056 252.967 192.32 253.159 191.728H254.535C254.167 193.136 252.999 194.24 251.063 194.24ZM248.615 189.28H253.255C253.303 187.984 252.503 186.896 250.967 186.896C249.671 186.896 248.775 187.808 248.615 189.28ZM259.027 194C257.395 194 256.611 193.136 256.611 191.712V187.184H255.155V185.968H256.035C256.451 185.968 256.675 185.744 256.675 185.328V183.44H257.955V185.968H259.587V187.184H257.971V192.304C257.971 192.656 258.115 192.784 258.467 192.784H259.827V194H259.027Z" fill="#A0A0A0"/>
<path opacity="0.53" d="M231.51 1H71.4897C67.3533 1 64 4.36012 64 8.50505V118.495C64 122.64 67.3533 126 71.4897 126H231.51C235.647 126 239 122.64 239 118.495V8.50505C239 4.36012 235.647 1 231.51 1Z" fill="white" stroke="black" stroke-linecap="round" stroke-linejoin="round"/>
<path d="M239 21.8261V8.47654C239.003 7.49562 238.811 6.52384 238.435 5.61685C238.06 4.70987 237.509 3.88551 236.813 3.191C236.117 2.49648 235.291 1.94545 234.381 1.56949C233.471 1.19352 232.495 0.999997 231.51 1H71.4898C70.5046 0.999997 69.529 1.19352 68.6191 1.56949C67.7091 1.94545 66.8826 2.49648 66.1868 3.191C65.4911 3.88551 64.9398 4.70987 64.5646 5.61685C64.1893 6.52384 63.9975 7.49562 64 8.47654V22L239 21.8261Z" fill="#FFCC00"/>
<path opacity="0.53" d="M215.627 35H87.3731C84.4056 35 82 37.354 82 40.2578V108.742C82 111.646 84.4056 114 87.3731 114H215.627C218.594 114 221 111.646 221 108.742V40.2578C221 37.354 218.594 35 215.627 35Z" fill="white" stroke="black" stroke-linecap="round" stroke-linejoin="round"/>
<path opacity="0.53" d="M124.5 65C126.433 65 128 63.2091 128 61C128 58.7909 126.433 57 124.5 57C122.567 57 121 58.7909 121 61C121 63.2091 122.567 65 124.5 65Z" fill="black"/>
<path opacity="0.53" d="M179.5 65C181.433 65 183 63.2091 183 61C183 58.7909 181.433 57 179.5 57C177.567 57 176 58.7909 176 61C176 63.2091 177.567 65 179.5 65Z" fill="black"/>
<path opacity="0.53" d="M127 92C128.247 86.6083 131.354 81.7888 135.807 78.3353C140.26 74.8817 145.795 73 151.5 73C157.205 73 162.74 74.8817 167.193 78.3353C171.646 81.7888 174.753 86.6083 176 92" stroke="black" stroke-linecap="round" stroke-linejoin="round"/>
</svg>
