<svg width="196" height="184" viewBox="0 0 196 184" fill="none" xmlns="http://www.w3.org/2000/svg">
<path d="M158.674 37.8645L98.2987 17.7395C97.7804 17.566 97.2196 17.566 96.7013 17.7395L36.3263 37.8645C35.8265 38.0319 35.3919 38.352 35.0838 38.7797C34.7757 39.2074 34.6098 39.721 34.6094 40.2481V90.5606C34.6094 91.2278 34.8744 91.8676 35.3462 92.3394C35.818 92.8112 36.4578 93.0762 37.125 93.0762C37.7922 93.0762 38.432 92.8112 38.9038 92.3394C39.3756 91.8676 39.6406 91.2278 39.6406 90.5606V43.7385L67.237 52.9394C63.8297 57.516 61.5047 62.8057 60.4367 68.4105C59.3687 74.0154 59.5857 79.7894 61.0713 85.2983C62.5569 90.8072 65.2724 95.9075 69.0135 100.215C72.7547 104.523 77.4241 107.927 82.6704 110.17C69.5514 113.78 58.143 122.201 50.1119 134.477C49.7793 135.035 49.6756 135.701 49.8227 136.334C49.9698 136.967 50.3563 137.519 50.901 137.873C51.4458 138.228 52.1066 138.358 52.745 138.236C53.3834 138.114 53.9498 137.749 54.3256 137.219C64.2749 121.956 80.0164 113.201 97.5 113.201C114.984 113.201 130.725 121.956 140.674 137.213C141.05 137.743 141.617 138.107 142.255 138.229C142.893 138.351 143.554 138.221 144.099 137.867C144.644 137.512 145.03 136.961 145.177 136.328C145.324 135.695 145.221 135.029 144.888 134.471C136.888 122.195 125.449 113.774 112.33 110.164C117.576 107.921 122.245 104.517 125.986 100.209C129.728 95.9012 132.443 90.8009 133.929 85.292C135.414 79.7832 135.631 74.0091 134.563 68.4043C133.495 62.7994 131.17 57.5097 127.763 52.9331L158.674 42.6254C159.172 42.457 159.606 42.1365 159.913 41.7089C160.22 41.2813 160.385 40.7682 160.385 40.2418C160.385 39.7154 160.22 39.2023 159.913 38.7747C159.606 38.3471 159.172 38.0266 158.674 37.8582V37.8645ZM130.203 75.4668C130.203 80.7145 128.941 85.8851 126.522 90.5421C124.103 95.199 120.599 99.2055 116.306 102.223C112.013 105.241 107.056 107.181 101.855 107.88C96.6546 108.579 91.3619 108.016 86.4244 106.239C81.4868 104.461 77.0495 101.522 73.4871 97.6689C69.9247 93.8157 67.3418 89.1618 65.9567 84.1003C64.5715 79.0387 64.4248 73.7182 65.5288 68.588C66.6328 63.4578 68.9552 58.6686 72.2997 54.6249L96.7013 62.7567C97.2192 62.9325 97.7808 62.9325 98.2987 62.7567L122.7 54.6249C127.557 60.4839 130.211 67.8569 130.203 75.4668ZM97.5 57.7191L45.0807 40.2481L97.5 22.7771L149.919 40.2481L97.5 57.7191Z" fill="#FFCC00"/>
<path d="M12.168 179L4.248 166.28V179H1.152V162.2H4.896L12.312 174.08V162.2H15.384V179H12.168ZM23.4829 179.384C19.5949 179.384 17.1229 176.816 17.1229 172.928C17.1229 169.04 19.5949 166.472 23.4829 166.472C27.3229 166.472 29.7949 169.04 29.7949 172.928C29.7949 176.816 27.3229 179.384 23.4829 179.384ZM23.4829 176.768C25.4029 176.768 26.6749 175.256 26.6749 172.928C26.6749 170.6 25.4029 169.064 23.4829 169.064C21.5389 169.064 20.2669 170.6 20.2669 172.928C20.2669 175.256 21.5389 176.768 23.4829 176.768ZM44.775 179.36C40.095 179.36 37.119 176.936 37.119 172.616H40.359C40.359 175.328 41.943 176.576 44.727 176.576C47.175 176.576 48.279 175.616 48.279 174.248C48.279 173.024 47.415 172.376 45.615 172.04L43.263 171.608C39.447 170.936 37.743 169.4 37.743 166.832C37.743 163.76 40.167 161.84 44.103 161.84C48.351 161.84 51.015 164.072 51.015 167.768H47.895C47.847 165.584 46.311 164.552 44.055 164.552C41.943 164.552 40.959 165.464 40.959 166.712C40.959 167.888 41.823 168.44 43.719 168.8L45.999 169.208C49.839 169.928 51.519 171.44 51.519 174.104C51.519 177.392 48.999 179.36 44.775 179.36ZM58.9455 179C56.0655 179 54.4815 177.416 54.4815 174.752V169.448H52.2735V166.856H53.6895C54.3375 166.856 54.6735 166.52 54.6735 165.896V163.16H57.4815V166.856H60.0255V169.448H57.5535V175.688C57.5535 176.192 57.7935 176.408 58.2975 176.408H60.3375V179H58.9455ZM65.886 179.384C63.174 179.384 61.494 177.584 61.494 174.56V166.856H64.566V173.984C64.566 175.856 65.286 176.72 66.654 176.72C68.238 176.72 69.438 175.544 69.438 172.904V166.856H72.51V179H69.726V177.176C68.982 178.664 67.638 179.384 65.886 179.384ZM79.6652 179.384C76.4252 179.384 74.1932 176.912 74.1932 172.928C74.1932 168.92 76.4252 166.472 79.6652 166.472C81.3212 166.472 82.6892 167.144 83.5772 168.344V162.2H86.6252V179H83.8412V177.2C82.9532 178.592 81.4892 179.384 79.6652 179.384ZM80.4572 176.768C82.3532 176.768 83.6492 175.256 83.6492 172.928C83.6492 170.6 82.3532 169.064 80.4572 169.064C78.5372 169.064 77.3372 170.6 77.3372 172.928C77.3372 175.256 78.5372 176.768 80.4572 176.768ZM94.4723 179.384C90.6562 179.384 88.2323 176.84 88.2323 172.928C88.2323 169.064 90.6323 166.472 94.4723 166.472C98.6243 166.472 100.88 169.496 100.256 173.744H91.3043C91.4723 175.76 92.6243 176.912 94.4723 176.912C95.9843 176.912 96.8963 176.12 97.1363 175.328H100.184C99.7043 177.68 97.5923 179.384 94.4723 179.384ZM91.3763 171.656H97.2803C97.2563 170 96.2003 168.872 94.4003 168.872C92.7923 168.872 91.6643 169.832 91.3763 171.656ZM110.188 171.872C110.188 170 109.444 169.136 107.956 169.136C106.252 169.136 105.052 170.312 105.052 172.952V179H101.98V166.856H104.764V168.632C105.532 167.216 106.876 166.472 108.7 166.472C111.556 166.472 113.26 168.272 113.26 171.296V179H110.188V171.872ZM120.867 179C117.987 179 116.403 177.416 116.403 174.752V169.448H114.195V166.856H115.611C116.259 166.856 116.595 166.52 116.595 165.896V163.16H119.403V166.856H121.947V169.448H119.475V175.688C119.475 176.192 119.715 176.408 120.219 176.408H122.259V179H120.867ZM129.754 179V162.2H142.066V165.056H132.994V169.16H141.226V172.016H132.994V179H129.754ZM148.756 179.384C144.868 179.384 142.396 176.816 142.396 172.928C142.396 169.04 144.868 166.472 148.756 166.472C152.596 166.472 155.068 169.04 155.068 172.928C155.068 176.816 152.596 179.384 148.756 179.384ZM148.756 176.768C150.676 176.768 151.948 175.256 151.948 172.928C151.948 170.6 150.676 169.064 148.756 169.064C146.812 169.064 145.54 170.6 145.54 172.928C145.54 175.256 146.812 176.768 148.756 176.768ZM160.761 179.384C158.049 179.384 156.369 177.584 156.369 174.56V166.856H159.441V173.984C159.441 175.856 160.161 176.72 161.529 176.72C163.113 176.72 164.313 175.544 164.313 172.904V166.856H167.385V179H164.601V177.176C163.857 178.664 162.513 179.384 160.761 179.384ZM177.805 171.872C177.805 170 177.061 169.136 175.573 169.136C173.869 169.136 172.669 170.312 172.669 172.952V179H169.597V166.856H172.381V168.632C173.149 167.216 174.493 166.472 176.317 166.472C179.173 166.472 180.877 168.272 180.877 171.296V179H177.805V171.872ZM187.736 179.384C184.496 179.384 182.264 176.912 182.264 172.928C182.264 168.92 184.496 166.472 187.736 166.472C189.392 166.472 190.76 167.144 191.648 168.344V162.2H194.696V179H191.912V177.2C191.024 178.592 189.56 179.384 187.736 179.384ZM188.528 176.768C190.424 176.768 191.72 175.256 191.72 172.928C191.72 170.6 190.424 169.064 188.528 169.064C186.608 169.064 185.408 170.6 185.408 172.928C185.408 175.256 186.608 176.768 188.528 176.768Z" fill="black"/>
</svg>
