<svg width="23" height="23" viewBox="0 0 23 23" fill="none" xmlns="http://www.w3.org/2000/svg">
<path d="M13.745 13.4233L14.7649 13.5303V21.832L11.9478 18.8238V14.038L12.766 14.4376L13.745 13.4233ZM9.25506 13.4233L8.23461 13.5303V21.832L11.0517 18.8238V14.038L10.2335 14.4376L9.25506 13.4233ZM16.9807 8.22223L17.3108 9.37106L16.32 10.0391L16.237 11.2327L15.0776 11.5213L14.5923 12.6135L13.4037 12.488L12.5738 13.3454L11.5 12.8208L10.4263 13.3454L9.59638 12.4851L8.40774 12.6107L7.92245 11.5185L6.76302 11.2327L6.68005 10.0407L5.68647 9.37048L6.01655 8.22169L5.31604 7.25389L6.0188 6.28718L5.68647 5.14063L6.6778 4.47265L6.76077 3.28064L7.92245 2.99485L8.40774 1.90267L9.59638 2.02818L10.4263 1.16797L11.5 1.69252L12.5738 1.16797L13.4037 2.02818L14.5923 1.90267L15.0776 2.99485L16.237 3.28347L16.32 4.47543L17.3108 5.14342L16.9807 6.29225L17.684 7.25389L16.9807 8.22223ZM14.7699 7.25389C14.7699 6.61205 14.5796 5.98461 14.223 5.45093C13.8664 4.91725 13.3596 4.5013 12.7666 4.25568C12.1736 4.01005 11.5211 3.94579 10.8916 4.071C10.2621 4.19622 9.68381 4.5053 9.22996 4.95916C8.7761 5.41301 8.46702 5.99126 8.3418 6.62078C8.21658 7.25029 8.28085 7.9028 8.52648 8.4958C8.7721 9.08879 9.18805 9.59563 9.72173 9.95222C10.2554 10.3088 10.8828 10.4991 11.5247 10.4991C12.385 10.4978 13.2096 10.1555 13.8179 9.54715C14.4263 8.93884 14.7686 8.11417 14.7699 7.25389ZM11.5247 4.90524C11.0602 4.90524 10.6061 5.04299 10.2199 5.30105C9.83366 5.55912 9.53263 5.92592 9.35487 6.35507C9.17711 6.78422 9.13059 7.25644 9.22121 7.71202C9.31183 8.16761 9.53551 8.58609 9.86396 8.91455C10.1924 9.24301 10.6109 9.46669 11.0665 9.55732C11.5221 9.64795 11.9943 9.60144 12.4234 9.42369C12.8526 9.24594 13.2194 8.94492 13.4775 8.5587C13.7355 8.17248 13.8733 7.7184 13.8733 7.25389C13.8715 6.63171 13.6235 6.03553 13.1833 5.59573C12.7432 5.15593 12.1469 4.90829 11.5247 4.90695V4.90524Z" fill="black"/>
</svg>
