<svg width="19" height="19" viewBox="0 0 19 19" fill="none" xmlns="http://www.w3.org/2000/svg">
<path d="M18.7031 9.50002C18.7031 9.73623 18.6093 9.96276 18.4423 10.1298C18.2752 10.2968 18.0487 10.3906 17.8125 10.3906H16.818C16.6164 11.2354 16.1363 11.9876 15.455 12.5262C14.7737 13.0648 13.9309 13.3583 13.0625 13.3594H10.3906V14.5469H11.875C12.5836 14.5469 13.2632 14.8284 13.7643 15.3295C14.2654 15.8305 14.5469 16.5101 14.5469 17.2188C14.5469 17.455 14.453 17.6815 14.286 17.8485C14.119 18.0156 13.8925 18.1094 13.6562 18.1094C13.42 18.1094 13.1935 18.0156 13.0265 17.8485C12.8595 17.6815 12.7656 17.455 12.7656 17.2188C12.7656 16.9826 12.6718 16.756 12.5048 16.589C12.3377 16.422 12.1112 16.3281 11.875 16.3281H10.3906V17.2188C10.3906 17.455 10.2968 17.6815 10.1298 17.8485C9.96274 18.0156 9.73621 18.1094 9.5 18.1094C9.26379 18.1094 9.03726 18.0156 8.87023 17.8485C8.70321 17.6815 8.60938 17.455 8.60938 17.2188V16.3281H7.125C6.88879 16.3281 6.66226 16.422 6.49523 16.589C6.32821 16.756 6.23438 16.9826 6.23438 17.2188C6.23438 17.455 6.14054 17.6815 5.97352 17.8485C5.80649 18.0156 5.57996 18.1094 5.34375 18.1094C5.10754 18.1094 4.88101 18.0156 4.71398 17.8485C4.54696 17.6815 4.45312 17.455 4.45312 17.2188C4.45312 16.5101 4.73463 15.8305 5.2357 15.3295C5.73677 14.8284 6.41637 14.5469 7.125 14.5469H8.60938V13.3594H5.9375C5.06905 13.3583 4.22628 13.0648 3.54499 12.5262C2.86371 11.9876 2.3836 11.2354 2.18203 10.3906H1.1875C0.951292 10.3906 0.724758 10.2968 0.557733 10.1298C0.390708 9.96276 0.296875 9.73623 0.296875 9.50002C0.296875 9.26381 0.390708 9.03727 0.557733 8.87025C0.724758 8.70322 0.951292 8.60939 1.1875 8.60939H2.96875C3.20496 8.60939 3.43149 8.70322 3.59852 8.87025C3.76554 9.03727 3.85938 9.26381 3.85938 9.50002C3.85938 10.0512 4.07832 10.5797 4.46804 10.9695C4.85777 11.3592 5.38635 11.5781 5.9375 11.5781H13.0625C13.6137 11.5781 14.1422 11.3592 14.532 10.9695C14.9217 10.5797 15.1406 10.0512 15.1406 9.50002C15.1406 9.26381 15.2345 9.03727 15.4015 8.87025C15.5685 8.70322 15.795 8.60939 16.0312 8.60939H17.8125C18.0487 8.60939 18.2752 8.70322 18.4423 8.87025C18.6093 9.03727 18.7031 9.26381 18.7031 9.50002ZM5.40461 9.87111C5.26589 9.70924 5.16365 9.5194 5.10487 9.31448C5.04608 9.10957 5.03213 8.8944 5.06395 8.68361L6.07109 2.15236C6.12308 1.80049 6.30023 1.47918 6.57004 1.24741C6.83985 1.01564 7.1842 0.888966 7.53988 0.890641H11.4601C11.8158 0.888966 12.1602 1.01564 12.43 1.24741C12.6998 1.47918 12.8769 1.80049 12.9289 2.15236L13.9361 8.68361C13.9681 8.89492 13.9542 9.11067 13.8952 9.31609C13.8361 9.52151 13.7335 9.71177 13.5941 9.87386C13.4548 10.0359 13.2821 10.166 13.0879 10.2552C12.8937 10.3444 12.6825 10.3906 12.4688 10.3906H6.53125C6.3171 10.3904 6.10552 10.3439 5.91105 10.2542C5.71658 10.1645 5.54381 10.0339 5.40461 9.87111ZM6.87785 8.60939H12.1221L11.207 2.67189H7.79297L6.87785 8.60939Z" fill="black"/>
</svg>
