<svg width="22" height="22" viewBox="0 0 22 22" fill="none" xmlns="http://www.w3.org/2000/svg">
<path fill-rule="evenodd" clip-rule="evenodd" d="M10.3235 20.2902C10.3235 20.2902 3.66663 14.6838 3.66663 9.16732C3.66663 7.2224 4.43924 5.35713 5.81451 3.98187C7.18978 2.6066 9.05504 1.83398 11 1.83398C12.9449 1.83398 14.8101 2.6066 16.1854 3.98187C17.5607 5.35713 18.3333 7.2224 18.3333 9.16732C18.3333 14.6838 11.6765 20.2902 11.6765 20.2902C11.3061 20.6312 10.6965 20.6275 10.3235 20.2902ZM11 12.3757C11.4213 12.3757 11.8385 12.2927 12.2277 12.1314C12.617 11.9702 12.9707 11.7339 13.2686 11.436C13.5665 11.138 13.8028 10.7843 13.9641 10.3951C14.1253 10.0058 14.2083 9.58864 14.2083 9.16732C14.2083 8.74599 14.1253 8.32879 13.9641 7.93954C13.8028 7.55029 13.5665 7.19661 13.2686 6.89868C12.9707 6.60076 12.617 6.36444 12.2277 6.2032C11.8385 6.04197 11.4213 5.95898 11 5.95898C10.1491 5.95898 9.333 6.297 8.73133 6.89868C8.12965 7.50036 7.79163 8.31641 7.79163 9.16732C7.79163 10.0182 8.12965 10.8343 8.73133 11.436C9.333 12.0376 10.1491 12.3757 11 12.3757Z" fill="black"/>
</svg>
